<?xml version="1.0" encoding="utf-8"?>
<!-- Generator: Adobe Illustrator 22.1.0, SVG Export Plug-In . SVG Version: 6.00 Build 0)  -->
<svg version="1.1" id="图层_1" xmlns="http://www.w3.org/2000/svg" xmlns:xlink="http://www.w3.org/1999/xlink" x="0px" y="0px"
	 viewBox="0 0 14 14" style="enable-background:new 0 0 14 14;" xml:space="preserve">
<style type="text/css">
	.st0{fill:#FFFFFF;}
</style>
<g>
	<path class="st0" d="M0.9,5.3h12.3c0,0,0.1,0,0.1,0c0.1,0,0.2-0.1,0.3-0.2c0.2-0.2,0.2-0.6,0-0.9l-2.7-3c-0.2-0.2-0.6-0.2-0.8,0
		c-0.2,0.2-0.2,0.6,0,0.9L11.7,4H0.9C0.5,4,0.3,4.3,0.3,4.6C0.3,5,0.5,5.3,0.9,5.3z"/>
	<path class="st0" d="M13.1,8.7H0.9c0,0-0.1,0-0.1,0c-0.1,0-0.2,0.1-0.3,0.2c-0.2,0.2-0.2,0.6,0,0.9l2.7,3c0.2,0.2,0.6,0.2,0.8,0
		c0.2-0.2,0.2-0.6,0-0.9L2.3,10h10.9c0.3,0,0.6-0.3,0.6-0.6C13.7,9,13.5,8.7,13.1,8.7z"/>
</g>
</svg>
