<svg id="图层_1" data-name="图层 1" xmlns="http://www.w3.org/2000/svg" viewBox="0 0 22 22"><defs><style>.cls-1{fill:#7d90cd;}.cls-2{fill:#fff;}</style></defs><title>未标题-1</title><circle class="cls-1" cx="11" cy="11" r="11"/><path class="cls-2" d="M4.66,6H17.34a.66.66,0,0,1,.66.66V8a0,0,0,0,1,0,0H4A0,0,0,0,1,4,8V6.66A.66.66,0,0,1,4.66,6Z"/><path class="cls-2" d="M4,9H18a0,0,0,0,1,0,0v6.34a.66.66,0,0,1-.66.66H4.66A.66.66,0,0,1,4,15.34V9A0,0,0,0,1,4,9Z"/><rect class="cls-1" x="13" y="13" width="4" height="1"/></svg>