<?xml version="1.0" encoding="utf-8"?>
<!-- Generator: Adobe Illustrator 22.1.0, SVG Export Plug-In . SVG Version: 6.00 Build 0)  -->
<svg version="1.1" id="图层_1" xmlns="http://www.w3.org/2000/svg" xmlns:xlink="http://www.w3.org/1999/xlink" x="0px" y="0px"
	 viewBox="0 0 14 14" style="enable-background:new 0 0 14 14;" xml:space="preserve">
<style type="text/css">
	.st0{fill:#FFFFFF;}
</style>
<path class="st0" d="M7,0C3.1,0,0,3.1,0,7c0,3.9,3.1,7,7,7c3.9,0,7-3.1,7-7C14,3.1,10.9,0,7,0z M7.5,10.8h-1V9.9h1V10.8z M8.2,7
	C7.7,7.5,7.5,7.9,7.5,8.1V9H6.6V8.3c0-0.5,0.3-1.1,1-1.7C8.1,6,8.4,5.5,8.4,5.1C8.3,4.3,7.9,3.9,7.1,3.8c-0.9,0-1.4,0.6-1.4,1.7H4.8
	C4.9,4,5.6,3.2,7.1,3.2c1.3,0,2,0.7,2.1,2C9.2,5.8,8.9,6.4,8.2,7z"/>
</svg>
