<?xml version="1.0" encoding="utf-8"?>
<!-- Generator: Adobe Illustrator 22.1.0, SVG Export Plug-In . SVG Version: 6.00 Build 0)  -->
<svg version="1.1" id="图层_1" xmlns="http://www.w3.org/2000/svg" xmlns:xlink="http://www.w3.org/1999/xlink" x="0px" y="0px"
	 viewBox="0 0 14 14" style="enable-background:new 0 0 14 14;" xml:space="preserve">
<style type="text/css">
	.st0{fill:rgba(255,255,255,.2);}
</style>
<path class="st0" d="M13.9,6.1c-0.1-0.6-0.4-1.1-1-1.4c-0.1,0-0.1-0.1-0.1-0.1c-0.3-0.9-0.8-1.8-1.4-2.5c-0.9-1-2-1.6-3.3-1.9
	C7.5,0,6.8,0,6.2,0.1c-0.7,0.1-1.4,0.3-2,0.6C3.3,1.2,2.5,1.9,1.9,2.8C1.6,3.3,1.3,3.9,1.1,4.5c0,0,0,0.1-0.1,0.1
	c-0.4,0.3-0.7,0.6-0.8,1C0,6.2-0.1,6.8,0.1,7.4c0.1,0.5,0.3,0.9,0.6,1.2c0.4,0.4,0.8,0.5,1.3,0.6c0.4,0,0.6-0.2,0.6-0.6
	c0-1.2,0-2.4,0-3.6c0-0.3-0.1-0.5-0.4-0.6c0,0,0,0,0-0.1C2.4,4.2,2.4,4,2.5,3.9c0.3-0.5,0.6-1,1-1.4C4,2,4.5,1.7,5.2,1.4
	C5.9,1.1,6.7,1,7.5,1.1c0.7,0.1,1.4,0.3,2,0.7c0.5,0.3,0.9,0.7,1.3,1.1c0.3,0.4,0.6,0.9,0.8,1.4c0,0,0,0.1,0,0.1
	c-0.3,0.1-0.4,0.3-0.4,0.6c0,0.8,0,1.6,0,2.4c0,0.4,0,0.8,0,1.2c0,0.4,0.2,0.6,0.6,0.6c0.1,0,0.1,0,0.2,0c0,0,0,0,0,0v0c0,0,0,0,0,0
	c0,0,0,0,0,0.1c-0.1,0.6-0.3,1.2-0.7,1.7c-0.3,0.5-0.7,0.9-1.2,1.2c-0.1,0.1-0.3,0.2-0.5,0.1c-0.1,0-0.3,0-0.4,0c-0.1,0-0.3,0-0.4,0
	c0,0,0,0,0,0c0,0,0,0,0,0C9,12,8.8,11.8,8.6,11.7c-0.4-0.3-0.8-0.4-1.2-0.4c-0.4,0-0.8,0.2-1.1,0.5c-0.5,0.5-0.5,1.3,0,1.8
	c0.5,0.4,1.1,0.5,1.7,0.3c0.5-0.1,0.8-0.4,1-0.9c0,0,0,0,0,0c0,0,0,0,0,0c0.4,0,0.7,0,1.1,0c0.1,0,0.2,0,0.3-0.1
	c0.7-0.4,1.2-0.9,1.7-1.5c0.5-0.8,0.8-1.6,0.9-2.5c0-0.1,0-0.1,0.1-0.1c0.3-0.2,0.5-0.4,0.6-0.7C14,7.4,14.1,6.7,13.9,6.1z"/>
</svg>
