<?xml version="1.0" encoding="utf-8"?>
<!-- Generator: Adobe Illustrator 22.1.0, SVG Export Plug-In . SVG Version: 6.00 Build 0)  -->
<svg version="1.1" id="图层_1" xmlns="http://www.w3.org/2000/svg" xmlns:xlink="http://www.w3.org/1999/xlink" x="0px" y="0px"
	 viewBox="0 0 14 14" style="enable-background:new 0 0 14 14;" xml:space="preserve">
<style type="text/css">
	.st0{fill:#BCBDBD;}
	.st1{fill:#FFFFFF;}
</style>
<g>
	<path class="st0" d="M12.9,10.8c0.1-0.2,0.2-0.4,0.4-0.6c0-0.1,0.1-0.1,0.1-0.2c0.1-0.2,0.2-0.3,0.2-0.5c0-0.1,0.1-0.1,0.1-0.2
		c0.1-0.2,0.1-0.3,0.2-0.5c0-0.1,0.1-0.2,0.1-0.2c0-0.2,0.1-0.4,0.1-0.5c0-0.1,0-0.2,0-0.2C14,7.5,14,7.3,14,7c0-3.9-3.1-7-7-7
		C3.1,0,0,3.1,0,7c0,0.3,0,0.5,0.1,0.8c0,0.1,0,0.2,0,0.2c0,0.2,0.1,0.3,0.1,0.5c0,0.1,0,0.2,0.1,0.2C0.3,9,0.3,9.1,0.4,9.3
		c0,0.1,0.1,0.1,0.1,0.2C0.5,9.7,0.6,9.9,0.7,10c0,0.1,0.1,0.1,0.1,0.2c0.1,0.2,0.2,0.4,0.4,0.6l0,0C2.4,12.7,4.5,14,7,14
		S11.6,12.7,12.9,10.8C12.8,10.8,12.8,10.8,12.9,10.8z"/>
	<g>
		<path class="st1" d="M7,3.4c1.4,0,2.6,1.2,2.6,2.6c0,1.4-1.2,2.6-2.6,2.6S4.4,7.3,4.4,5.9C4.4,4.5,5.6,3.4,7,3.4z"/>
		<path class="st1" d="M2.8,11.4C3.5,9.7,5.1,8.6,7,8.6s3.5,1.1,4.2,2.8c-1.1,1.1-2.6,1.7-4.2,1.7C5.3,13.1,3.8,12.4,2.8,11.4z"/>
	</g>
</g>
</svg>
