<svg id="图层_1" data-name="图层 1" xmlns="http://www.w3.org/2000/svg" viewBox="0 0 22 22"><defs><style>.cls-1{fill:#47ab54;}.cls-2{fill:#fff;}</style></defs><title>未标题-1</title><circle class="cls-1" cx="11" cy="11" r="11"/><path class="cls-2" d="M13.74,8.5a2.28,2.28,0,0,1,.52,0c-.48-2.21-2.82-3.86-5.56-3.86-3,0-5.47,2.05-5.47,4.67a4.4,4.4,0,0,0,2.21,3.7L4.88,14.7l1.93-1A7.79,7.79,0,0,0,8.7,14h.53a5.5,5.5,0,0,1-.16-1.17A4.49,4.49,0,0,1,13.74,8.5ZM10.8,7a.66.66,0,0,1,.68.69.65.65,0,0,1-.68.68A.78.78,0,0,1,10,7.7.79.79,0,0,1,10.8,7ZM6.93,8.38a.76.76,0,0,1-.8-.68A.76.76,0,0,1,6.93,7a.66.66,0,0,1,.69.69.65.65,0,0,1-.69.68Zm0,0"/><path class="cls-2" d="M18.77,12.77c0-2.17-2.21-4-4.67-4-2.62,0-4.67,1.81-4.67,4s2.05,4,4.67,4a8.22,8.22,0,0,0,1.65-.24l1.49.8L16.84,16a4.24,4.24,0,0,0,1.93-3.18Zm-6.2-.68a.57.57,0,0,1-.56-.53.6.6,0,0,1,.56-.56.64.64,0,0,1,.69.56c0,.29-.29.53-.69.53Zm3,0a.53.53,0,0,1-.52-.53.57.57,0,0,1,.52-.56.64.64,0,0,1,.69.56c0,.29-.29.53-.69.53Zm0,0"/></svg>