<svg id="图层_1" data-name="图层 1" xmlns="http://www.w3.org/2000/svg" viewBox="0 0 26 26"><defs><style>.cls-1{fill:#d2d3d7;}</style></defs><title>微信图标</title><path class="cls-1" d="M12.86.72A12.14,12.14,0,1,0,25,12.86,12.13,12.13,0,0,0,12.86.72Zm0,23.74a11.6,11.6,0,1,1,11.6-11.6,11.6,11.6,0,0,1-11.6,11.6Zm2.68-13.9a2.5,2.5,0,0,1,.51.06c-.45-2.17-2.77-3.7-5.38-3.7-2.95,0-5.36,1.94-5.36,4.48a4.29,4.29,0,0,0,2.13,3.54l-.55,1.61,1.91-1a6.52,6.52,0,0,0,1.87.29h.47A4.72,4.72,0,0,1,11,14.76a4.36,4.36,0,0,1,4.55-4.2Zm-2.89-1.4a.61.61,0,0,1,.68.65.63.63,0,0,1-.68.66.72.72,0,0,1-.77-.66.7.7,0,0,1,.77-.65ZM8.91,10.47a.76.76,0,0,1-.81-.66.74.74,0,0,1,.81-.65.63.63,0,0,1,.68.65.65.65,0,0,1-.68.66Zm7,.39c-2.53,0-4.53,1.72-4.53,3.84s2,3.84,4.53,3.84a7.73,7.73,0,0,0,1.63-.28l1.43.8-.38-1.34a3.94,3.94,0,0,0,1.87-3c0-2.13-2.15-3.84-4.55-3.84ZM14.39,14a.54.54,0,0,1-.53-.48.56.56,0,0,1,.53-.55.61.61,0,0,1,.68.55c0,.24-.28.48-.68.48Zm3,0a.52.52,0,0,1-.52-.48.54.54,0,0,1,.52-.55.62.62,0,0,1,.67.55c0,.24-.29.48-.67.48Zm0,0"/></svg>